<?xml version="1.0" encoding="UTF-8"?>
<svg width="252px" height="252px" viewBox="0 0 252 252" version="1.1" xmlns="http://www.w3.org/2000/svg" xmlns:xlink="http://www.w3.org/1999/xlink">
    <!-- Generator: Sketch 42 (36781) - http://www.bohemiancoding.com/sketch -->
    <title>favicon</title>
    <desc>Created with Sketch.</desc>
    <defs></defs>
    <g id="Page-1" stroke="none" stroke-width="1" fill="none" fill-rule="evenodd">
        <g id="favicon">
            <g transform="translate(85.000000, 0.000000)">
                <path d="M41.0291461,0 C52.780788,0 62.3215229,9.54073485 62.3215229,21.2923768 C62.3215229,33.0440187 52.780788,42.5847535 41.0291461,42.5847535 C29.2775042,42.5847535 19.7367693,33.0440187 19.7367693,21.2923768 C19.7367693,9.54073485 29.2775042,0 41.0291461,0 Z" id="Fill-1" fill="#FFC934"></path>
                <path d="M117.934489,33.9802999 C128.505327,33.9802999 137.087905,42.5628778 137.087905,53.1337164 C137.087905,63.7045551 128.505327,72.287133 117.934489,72.287133 C107.36365,72.287133 98.7810721,63.7045551 98.7810721,53.1337164 C98.7810721,42.5628778 107.36365,33.9802999 117.934489,33.9802999 Z" id="Fill-2" fill="#FF009C"></path>
                <path d="M149.775828,112.878764 C159.273784,112.878764 166.984736,120.589716 166.984736,130.087672 C166.984736,139.585627 159.273784,147.296579 149.775828,147.296579 C140.277873,147.296579 132.566921,139.585627 132.566921,130.087672 C132.566921,120.589716 140.277873,112.878764 149.775828,112.878764 Z" id="Fill-3" fill="#1A6DAD"></path>
                <path d="M117.934489,191.485553 C126.493246,191.485553 133.44195,198.434257 133.44195,206.993014 C133.44195,215.551821 126.493246,222.500476 117.934489,222.500476 C109.375731,222.500476 102.427027,215.551821 102.427027,206.993014 C102.427027,198.434257 109.375731,191.485553 117.934489,191.485553 Z" id="Fill-4" fill="#00CCEA"></path>
                <path d="M41.0291461,226.292269 C47.951113,226.292269 53.571231,231.912193 53.571231,238.834354 C53.571231,245.756515 47.951113,251.376439 41.0291461,251.376439 C34.1071791,251.376439 28.4870611,245.756515 28.4870611,238.834354 C28.4870611,231.912193 34.1071791,226.292269 41.0291461,226.292269 Z" id="Fill-5" fill="#00D739"></path>
                <path d="M81.6693903,108.89252 C81.6693903,86.3630334 63.4044134,68.0578253 40.8346952,68.0578253 C18.2649769,68.0578253 0,86.3228022 0,108.89252 C0,131.422007 18.2649769,149.727216 40.8346952,149.727216 C44.4152743,149.727216 47.9153911,149.244441 51.2143517,148.399585 C54.7546996,147.594961 56.8467234,149.20421 58.0536602,150.974384 C59.9042966,154.031957 60.9905398,157.572305 60.9905398,161.394271 C60.9905398,166.946181 58.7375911,172.015315 55.0765494,175.676357 C51.4155078,179.337398 46.3866045,181.590347 40.7944639,181.590347 C35.2425546,181.590347 30.1734201,179.337398 26.5123784,175.676357 C24.3801234,173.544102 22.7306431,170.929072 21.7248624,168.032424 C20.3167695,164.009301 16.3338781,161.394271 12.069368,161.394271 C4.98867212,161.394271 -0.0804624535,168.434736 2.29317993,175.11312 C4.34497249,180.866185 7.64393308,186.015782 11.9084431,190.280292 C19.3109888,197.682838 29.4894892,202.228967 40.7944639,202.228967 C52.0592074,202.228967 62.277939,197.642607 69.6804847,190.280292 C77.0830305,182.877746 81.6291591,172.699246 81.6291591,161.394271 C81.6291591,151.416927 78.0485799,142.244207 72.0943584,135.163512 C78.0888111,128.042584 81.6693903,118.869865 81.6693903,108.89252 Z M20.5179256,108.89252 C20.5179256,97.6680082 29.6101829,88.5757509 40.8346952,88.5757509 C52.0592074,88.5757509 61.1514647,97.6680082 61.1514647,108.89252 C61.1514647,120.117033 52.0592074,129.20929 40.8346952,129.20929 C29.6101829,129.20929 20.5179256,120.117033 20.5179256,108.89252 Z" id="Fill-6" fill="#231F20"></path>
            </g>
        </g>
    </g>
</svg>